<?xml version="1.0" encoding="UTF-8" standalone="no"?>
<svg
   width="108"
   height="108"
   fill="currentColor"
   class="bi bi-box-seam"
   viewBox="0 0 108 108"
   version="1.1"
   id="svg4"
   sodipodi:docname="box-seam.svg"
   inkscape:version="1.2.1 (9c6d41e410, 2022-07-14)"
   xmlns:inkscape="http://www.inkscape.org/namespaces/inkscape"
   xmlns:sodipodi="http://sodipodi.sourceforge.net/DTD/sodipodi-0.dtd"
   xmlns="http://www.w3.org/2000/svg"
   xmlns:svg="http://www.w3.org/2000/svg">
  <defs
     id="defs8" />
  <sodipodi:namedview
     id="namedview6"
     pagecolor="#ffffff"
     bordercolor="#000000"
     borderopacity="0.25"
     inkscape:showpageshadow="2"
     inkscape:pageopacity="0.0"
     inkscape:pagecheckerboard="0"
     inkscape:deskcolor="#d1d1d1"
     showgrid="false"
     showguides="false"
     inkscape:zoom="4.6790582"
     inkscape:cx="3.6332098"
     inkscape:cy="73.946505"
     inkscape:window-width="1920"
     inkscape:window-height="1027"
     inkscape:window-x="-8"
     inkscape:window-y="-8"
     inkscape:window-maximized="1"
     inkscape:current-layer="svg4" />
  <path
     d="m 53.6975,26.88594 a 1.875,1.875 0 0 0 -1.395,0 l -22.38,8.95125 9.015,3.60375 23.0775,-9.22875 z m 13.365,5.3475 L 43.985,41.46219 53,45.06594 76.0775,35.83719 Z m 12.1875,6.375 -24.375,9.75 v 29.7075 l 24.375,-9.75 V 38.61219 Z M 51.125,78.06969 v -29.715 L 26.75,38.60844 v 29.71125 z m -0.21375,-54.6675 a 5.625,5.625 0 0 1 4.1775,0 l 26.73375,10.695 a 1.875,1.875 0 0 1 1.1775,1.74 v 32.4825 a 3.75,3.75 0 0 1 -2.35875,3.48 L 53.6975,82.57719 a 1.875,1.875 0 0 1 -1.395,0 l -26.94,-10.7775 A 3.75,3.75 0 0 1 23,68.31969 v -32.4825 a 1.875,1.875 0 0 1 1.1775,-1.74 z"
     id="path2"
     style="stroke-width:3.75" />
</svg>
